<?xml version="1.0" encoding="UTF-8" standalone="no"?>
<svg
   xmlns:dc="http://purl.org/dc/elements/1.1/"
   xmlns:cc="http://creativecommons.org/ns#"
   xmlns:rdf="http://www.w3.org/1999/02/22-rdf-syntax-ns#"
   xmlns:svg="http://www.w3.org/2000/svg"
   xmlns="http://www.w3.org/2000/svg"
   xmlns:xlink="http://www.w3.org/1999/xlink"
   xmlns:sodipodi="http://sodipodi.sourceforge.net/DTD/sodipodi-0.dtd"
   xmlns:inkscape="http://www.inkscape.org/namespaces/inkscape"
   width="720"
   height="430"
   viewBox="0 0 600 480"
   id="svg4680"
   sodipodi:version="0.32"
   inkscape:version="0.46"
   sodipodi:docname="fermi_dirac_distr.svg"
   inkscape:output_extension="org.inkscape.output.svg.inkscape"
   version="1.0">
  <metadata
     id="metadata4847">
    <rdf:RDF>
      <cc:Work
         rdf:about="">
        <dc:format>image/svg+xml</dc:format>
        <dc:type
           rdf:resource="http://purl.org/dc/dcmitype/StillImage" />
      </cc:Work>
    </rdf:RDF>
  </metadata>
  <sodipodi:namedview
     inkscape:window-height="725"
     inkscape:window-width="1280"
     inkscape:pageshadow="2"
     inkscape:pageopacity="0.0"
     guidetolerance="10.0"
     gridtolerance="10.0"
     objecttolerance="10.0"
     borderopacity="1.0"
     bordercolor="#666666"
     pagecolor="#ffffff"
     id="base"
     showgrid="false"
     inkscape:zoom="0.90333333"
     inkscape:cx="386.11516"
     inkscape:cy="233.72821"
     inkscape:window-x="0"
     inkscape:window-y="25"
     inkscape:current-layer="svg4680" />
  <desc
     id="desc4682">Produced by GNUPLOT 4.2 patchlevel 2  </desc>
  <defs
     id="defs4684">
    <inkscape:perspective
       sodipodi:type="inkscape:persp3d"
       inkscape:vp_x="0 : 240 : 1"
       inkscape:vp_y="0 : 1000 : 0"
       inkscape:vp_z="600 : 240 : 1"
       inkscape:persp3d-origin="300 : 160 : 1"
       id="perspective4849" />
    <circle
       id="gpDot"
       r="1"
       cx="0"
       cy="0"
       sodipodi:cx="0"
       sodipodi:cy="0"
       sodipodi:rx="1"
       sodipodi:ry="1" />
    <path
       id="gpPt0"
       style="stroke-width:0.222"
       d="M -1,0 L 1,0 M 0,-1 L 0,1" />
    <path
       id="gpPt1"
       style="stroke-width:0.222"
       d="M -1,-1 L 1,1 M 1,-1 L -1,1" />
    <path
       id="gpPt2"
       style="stroke-width:0.222"
       d="M -1,0 L 1,0 M 0,-1 L 0,1 M -1,-1 L 1,1 M -1,1 L 1,-1" />
    <rect
       id="gpPt3"
       style="stroke-width:0.222"
       x="-1"
       y="-1"
       width="2"
       height="2" />
    <use
       xlink:href="#gpPt3"
       id="gpPt4"
       style="stroke:none"
       x="0"
       y="0"
       width="600"
       height="480" />
    <circle
       id="gpPt5"
       style="stroke-width:0.222"
       cx="0"
       cy="0"
       r="1"
       sodipodi:cx="0"
       sodipodi:cy="0"
       sodipodi:rx="1"
       sodipodi:ry="1" />
    <use
       xlink:href="#gpPt5"
       id="gpPt6"
       style="stroke:none"
       x="0"
       y="0"
       width="600"
       height="480" />
    <path
       id="gpPt7"
       style="stroke-width:0.222"
       d="M 0,-1.33 L -1.33,0.67 L 1.33,0.67 L 0,-1.33 z" />
    <use
       xlink:href="#gpPt7"
       id="gpPt8"
       style="stroke:none"
       x="0"
       y="0"
       width="600"
       height="480" />
    <use
       xlink:href="#gpPt7"
       id="gpPt9"
       transform="scale(-1,-1)"
       x="0"
       y="0"
       width="600"
       height="480" />
    <use
       xlink:href="#gpPt9"
       id="gpPt10"
       style="stroke:none"
       x="0"
       y="0"
       width="600"
       height="480" />
    <use
       xlink:href="#gpPt3"
       id="gpPt11"
       transform="matrix(0.7071068,0.7071068,-0.7071068,0.7071068,0,0)"
       x="0"
       y="0"
       width="600"
       height="480" />
    <use
       xlink:href="#gpPt11"
       id="gpPt12"
       style="stroke:none"
       x="0"
       y="0"
       width="600"
       height="480" />
  </defs>
  <path
     style="fill:none;fill-rule:evenodd;stroke:#000000;stroke-width:0.49116279;stroke-linecap:butt;stroke-linejoin:miter;stroke-opacity:1;stroke-miterlimit:4;stroke-dasharray:1.96465115,3.9293023;stroke-dashoffset:0"
     d="M -68.284461,52.255203 L 305.88093,52.202198"
     id="path5407"
     sodipodi:nodetypes="cc" />
  <g
     style="fill:none;stroke-width:1;stroke-linecap:butt;stroke-linejoin:miter"
     id="g4700" />
  <path
     style="stroke:#000000;stroke-width:1;stroke-linecap:butt;stroke-linejoin:miter"
     id="path4704"
     d="M -68.299236,408.4 L -55.228795,408.4 M 680.49178,408.4 L 667.42134,408.4" />
  <g
     id="g4706"
     style="font-size:15px;text-anchor:end;fill:#000000;stroke:none;stroke-width:1;stroke-linecap:butt;stroke-linejoin:miter;font-family:Arial"
     transform="translate(-75.544795,412.9)">
    <text
       id="text4708">0</text>
  </g>
  <path
     style="stroke:#000000;stroke-width:1;stroke-linecap:butt;stroke-linejoin:miter"
     id="path4710"
     d="M -68.299236,337.1 L -55.228795,337.1 M 680.49178,337.1 L 667.42134,337.1" />
  <g
     id="g4712"
     style="font-size:15px;text-anchor:end;fill:#000000;stroke:none;stroke-width:1;stroke-linecap:butt;stroke-linejoin:miter;font-family:Arial"
     transform="translate(-75.544795,341.6)">
    <text
       id="text4714">0.2</text>
  </g>
  <path
     style="stroke:#000000;stroke-width:1;stroke-linecap:butt;stroke-linejoin:miter"
     id="path4716"
     d="M -68.299236,265.9 L -55.228795,265.9 M 680.49178,265.9 L 667.42134,265.9" />
  <g
     id="g4718"
     style="font-size:15px;text-anchor:end;fill:#000000;stroke:none;stroke-width:1;stroke-linecap:butt;stroke-linejoin:miter;font-family:Arial"
     transform="translate(-75.544795,270.4)">
    <text
       id="text4720">0.4</text>
  </g>
  <path
     style="stroke:#000000;stroke-width:1;stroke-linecap:butt;stroke-linejoin:miter"
     id="path4722"
     d="M -68.299236,194.7 L -55.228795,194.7 M 680.49178,194.7 L 667.42134,194.7" />
  <g
     id="g4724"
     style="font-size:15px;text-anchor:end;fill:#000000;stroke:none;stroke-width:1;stroke-linecap:butt;stroke-linejoin:miter;font-family:Arial"
     transform="translate(-75.544795,199.2)">
    <text
       id="text4726">0.6</text>
  </g>
  <path
     style="stroke:#000000;stroke-width:1;stroke-linecap:butt;stroke-linejoin:miter"
     id="path4728"
     d="M -68.299236,123.5 L -55.228795,123.5 M 680.49178,123.5 L 667.42134,123.5" />
  <g
     id="g4730"
     style="font-size:15px;text-anchor:end;fill:#000000;stroke:none;stroke-width:1;stroke-linecap:butt;stroke-linejoin:miter;font-family:Arial"
     transform="translate(-75.544795,128)">
    <text
       id="text4732">0.8</text>
  </g>
  <path
     style="stroke:#000000;stroke-width:1;stroke-linecap:butt;stroke-linejoin:miter"
     id="path4734"
     d="M -68.299236,52.2 L -55.228795,52.2 M 680.49178,52.2 L 667.42134,52.2" />
  <g
     id="g4736"
     style="font-size:15px;text-anchor:end;fill:#000000;stroke:none;stroke-width:1;stroke-linecap:butt;stroke-linejoin:miter;font-family:Arial"
     transform="translate(-75.544795,56.7)">
    <text
       id="text4738">1</text>
  </g>
  <path
     style="stroke:#000000;stroke-width:1;stroke-linecap:butt;stroke-linejoin:miter"
     id="path4740"
     d="M -68.299236,444 L -68.299236,435 M -68.299236,16.6 L -68.299236,25.6" />
  <g
     id="g4742"
     style="font-size:15px;text-anchor:middle;fill:#000000;stroke:none;stroke-width:1;stroke-linecap:butt;stroke-linejoin:miter;font-family:Arial"
     transform="translate(-69.716262,466.5)">
    <text
       id="text4744">-8</text>
  </g>
  <path
     style="stroke:#000000;stroke-width:1;stroke-linecap:butt;stroke-linejoin:miter"
     id="path4746"
     d="M 25.372254,444 L 25.372254,435 M 25.372254,16.6 L 25.372254,25.6" />
  <g
     id="g4748"
     style="font-size:15px;text-anchor:middle;fill:#000000;stroke:none;stroke-width:1;stroke-linecap:butt;stroke-linejoin:miter;font-family:Arial"
     transform="translate(24.099793,466.5)">
    <text
       id="text4750">-6</text>
  </g>
  <path
     style="stroke:#000000;stroke-width:1;stroke-linecap:butt;stroke-linejoin:miter"
     id="path4752"
     d="M 118.89852,444 L 118.89852,435 M 118.89852,16.6 L 118.89852,25.6" />
  <g
     id="g4754"
     style="font-size:15px;text-anchor:middle;fill:#000000;stroke:none;stroke-width:1;stroke-linecap:butt;stroke-linejoin:miter;font-family:Arial"
     transform="translate(117.78769,466.5)">
    <text
       id="text4756">-4</text>
  </g>
  <path
     style="stroke:#000000;stroke-width:1;stroke-linecap:butt;stroke-linejoin:miter"
     id="path4758"
     d="M 212.57,444 L 212.57,435 M 212.57,16.6 L 212.57,25.6" />
  <g
     id="g4760"
     style="font-size:15px;text-anchor:middle;fill:#000000;stroke:none;stroke-width:1;stroke-linecap:butt;stroke-linejoin:miter;font-family:Arial"
     transform="translate(211.74292,466.5)">
    <text
       id="text4762">-2</text>
  </g>
  <path
     style="stroke:#000000;stroke-width:1;stroke-linecap:butt;stroke-linejoin:miter"
     id="path4764"
     d="M 306.09627,444 L 306.09627,435 M 306.09627,16.6 L 306.09627,25.6" />
  <g
     id="g4766"
     style="font-size:15px;text-anchor:middle;fill:#000000;stroke:none;stroke-width:1;stroke-linecap:butt;stroke-linejoin:miter;font-family:Arial"
     transform="translate(305.49672,466.5)">
    <text
       id="text4768">0</text>
  </g>
  <path
     style="stroke:#000000;stroke-width:1;stroke-linecap:butt;stroke-linejoin:miter"
     id="path4770"
     d="M 399.76776,444 L 399.76776,435 M 399.76776,16.6 L 399.76776,25.6" />
  <g
     id="g4772"
     style="font-size:15px;text-anchor:middle;fill:#000000;stroke:none;stroke-width:1;stroke-linecap:butt;stroke-linejoin:miter;font-family:Arial"
     transform="translate(399.29448,466.5)">
    <text
       id="text4774">2</text>
  </g>
  <path
     style="stroke:#000000;stroke-width:1;stroke-linecap:butt;stroke-linejoin:miter"
     id="path4776"
     d="M 493.29402,444 L 493.29402,435 M 493.29402,16.6 L 493.29402,25.6" />
  <g
     id="g4778"
     style="font-size:15px;text-anchor:middle;fill:#000000;stroke:none;stroke-width:1;stroke-linecap:butt;stroke-linejoin:miter;font-family:Arial"
     transform="translate(493.13982,466.5)">
    <text
       id="text4780">4</text>
  </g>
  <path
     style="stroke:#000000;stroke-width:1;stroke-linecap:butt;stroke-linejoin:miter"
     id="path4782"
     d="M 586.96551,444 L 586.96551,435 M 586.96551,16.6 L 586.96551,25.6" />
  <g
     id="g4784"
     style="font-size:15px;text-anchor:middle;fill:#000000;stroke:none;stroke-width:1;stroke-linecap:butt;stroke-linejoin:miter;font-family:Arial"
     transform="translate(586.83869,466.5)">
    <text
       id="text4786">6</text>
  </g>
  <path
     style="stroke:#000000;stroke-width:1;stroke-linecap:butt;stroke-linejoin:miter"
     id="path4788"
     d="M 680.49178,444 L 680.49178,435 M 680.49178,16.6 L 680.49178,25.6" />
  <g
     id="g4790"
     style="font-size:15px;text-anchor:middle;fill:#000000;stroke:none;stroke-width:1;stroke-linecap:butt;stroke-linejoin:miter;font-family:Arial"
     transform="translate(680.67306,466.5)">
    <text
       id="text4792">8</text>
  </g>
  <path
     style="stroke:#000000;stroke-width:0.50009303;stroke-linecap:butt;stroke-linejoin:miter;stroke-miterlimit:4;stroke-dasharray:2.00037216,4.00074431;stroke-dashoffset:0"
     id="path4796"
     d="M 306.12795,408.4 L 680.4918,408.4 M 306.09628,408.16373 L 306.09628,51.551816"
     sodipodi:nodetypes="cccc" />
  <g
     style="fill:none;stroke:#000000;stroke-width:0.8298052;stroke-linecap:butt;stroke-linejoin:miter"
     id="g4798"
     transform="matrix(1.4522712,0,0,1,-153.69278,0)">
    <path
       d="M 58.8,16.6 L 58.8,444 L 574.4,444 L 574.4,16.6 L 58.8,16.6 z"
       id="path4800"
       style="stroke:#000000;stroke-width:0.8298052" />
  </g>
  <g
     style="fill:none;stroke-width:2;stroke-linecap:butt;stroke-linejoin:miter"
     id="g4802" />
  <g
     style="fill:none;stroke-width:2;stroke-linecap:butt;stroke-linejoin:miter"
     id="g4804" />
  <g
     style="fill:none;stroke:#ff0000;stroke-width:1.65961039000000010;stroke-linecap:butt;stroke-linejoin:miter"
     id="g4812"
     transform="matrix(1.4522712,0,0,1,-153.69278,0)">
    <path
       d="M 58.8,52.3 L 59.8,52.3 L 60.9,52.3 L 61.9,52.3 L 62.9,52.4 L 64,52.4 L 65,52.4 L 66,52.4 L 67.1,52.4 L 68.1,52.4 L 69.1,52.4 L 70.2,52.4 L 71.2,52.4 L 72.2,52.4 L 73.3,52.4 L 74.3,52.4 L 75.3,52.4 L 76.4,52.4 L 77.4,52.4 L 78.4,52.4 L 79.5,52.4 L 80.5,52.5 L 81.5,52.5 L 82.6,52.5 L 83.6,52.5 L 84.6,52.5 L 85.7,52.5 L 86.7,52.5 L 87.7,52.5 L 88.8,52.5 L 89.8,52.5 L 90.8,52.5 L 91.9,52.5 L 92.9,52.6 L 93.9,52.6 L 95,52.6 L 96,52.6 L 97,52.6 L 98.1,52.6 L 99.1,52.6 L 100.1,52.6 L 101.2,52.7 L 102.2,52.7 L 103.2,52.7 L 104.3,52.7 L 105.3,52.7 L 106.3,52.7 L 107.4,52.8 L 108.4,52.8 L 109.4,52.8 L 110.5,52.8 L 111.5,52.8 L 112.5,52.8 L 113.6,52.9 L 114.6,52.9 L 115.6,52.9 L 116.7,52.9 L 117.7,53 L 118.7,53 L 119.8,53 L 120.8,53 L 121.8,53.1 L 122.9,53.1 L 123.9,53.1 L 124.9,53.1 L 126,53.2 L 127,53.2 L 128,53.2 L 129.1,53.3 L 130.1,53.3 L 131.1,53.3 L 132.2,53.4 L 133.2,53.4 L 134.2,53.5 L 135.3,53.5 L 136.3,53.5 L 137.3,53.6 L 138.4,53.6 L 139.4,53.7 L 140.4,53.7 L 141.5,53.8 L 142.5,53.8 L 143.5,53.9 L 144.6,53.9 L 145.6,54 L 146.6,54 L 147.7,54.1 L 148.7,54.2 L 149.7,54.2 L 150.8,54.3 L 151.8,54.3 L 152.8,54.4 L 153.9,54.5 L 154.9,54.6 L 155.9,54.6 L 157,54.7 L 158,54.8 L 159,54.9 L 160.1,55 L 161.1,55.1 L 162.1,55.1 L 163.2,55.2 L 164.2,55.3 L 165.2,55.4 L 166.3,55.5 L 167.3,55.6 L 168.3,55.8 L 169.4,55.9 L 170.4,56 L 171.4,56.1 L 172.5,56.2 L 173.5,56.4 L 174.5,56.5 L 175.6,56.6 L 176.6,56.8 L 177.6,56.9 L 178.7,57.1 L 179.7,57.2 L 180.7,57.4 L 181.8,57.6 L 182.8,57.7 L 183.8,57.9 L 184.9,58.1 L 185.9,58.3 L 186.9,58.5 L 188,58.7 L 189,58.9 L 190,59.1 L 191.1,59.3 L 192.1,59.5 L 193.1,59.8 L 194.2,60 L 195.2,60.3 L 196.2,60.5 L 197.3,60.8 L 198.3,61.1 L 199.3,61.3 L 200.4,61.6 L 201.4,61.9 L 202.4,62.2 L 203.5,62.5 L 204.5,62.9 L 205.5,63.2 L 206.6,63.6 L 207.6,63.9 L 208.6,64.3 L 209.7,64.7 L 210.7,65.1 L 211.7,65.5 L 212.8,65.9 L 213.8,66.3 L 214.8,66.7 L 215.9,67.2 L 216.9,67.7 L 217.9,68.1 L 219,68.6 L 220,69.1 L 221,69.7 L 222.1,70.2 L 223.1,70.8 L 224.1,71.3 L 225.2,71.9 L 226.2,72.5 L 227.2,73.1 L 228.3,73.8 L 229.3,74.4 L 230.3,75.1 L 231.4,75.8 L 232.4,76.5 L 233.4,77.3 L 234.5,78 L 235.5,78.8 L 236.5,79.6 L 237.6,80.4 L 238.6,81.3 L 239.6,82.1 L 240.7,83 L 241.7,84 L 242.7,84.9 L 243.8,85.9 L 244.8,86.8 L 245.8,87.9 L 246.9,88.9 L 247.9,90 L 248.9,91.1 L 250,92.2 L 251,93.3 L 252,94.5 L 253.1,95.7 L 254.1,97 L 255.1,98.2 L 256.2,99.5 L 257.2,100.9 L 258.2,102.2 L 259.3,103.6 L 260.3,105.1 L 261.3,106.5 L 262.4,108 L 263.4,109.5 L 264.4,111.1 L 265.5,112.7 L 266.5,114.3 L 267.5,116 L 268.6,117.7 L 269.6,119.4 L 270.6,121.2 L 271.7,123 L 272.7,124.8 L 273.7,126.7 L 274.8,128.6 L 275.8,130.5 L 276.8,132.5 L 277.9,134.5 L 278.9,136.6 L 279.9,138.6 L 281,140.8 L 282,142.9 L 283,145.1 L 284.1,147.3 L 285.1,149.6 L 286.1,151.8 L 287.2,154.2 L 288.2,156.5 L 289.2,158.9 L 290.3,161.3 L 291.3,163.7 L 292.3,166.2 L 293.4,168.7 L 294.4,171.2 L 295.4,173.8 L 296.5,176.4 L 297.5,179 L 298.5,181.6 L 299.6,184.3 L 300.6,186.9 L 301.6,189.6 L 302.7,192.3 L 303.7,195.1 L 304.7,197.8 L 305.8,200.6 L 306.8,203.4 L 307.8,206.2 L 308.9,209 L 309.9,211.8 L 310.9,214.6 L 312,217.5 L 313,220.3 L 314,223.2 L 315.1,226 L 316.1,228.9 L 317.1,231.7 L 318.1,234.6 L 319.2,237.4 L 320.2,240.3 L 321.2,243.1 L 322.3,246 L 323.3,248.8 L 324.3,251.6 L 325.4,254.4 L 326.4,257.2 L 327.4,260 L 328.5,262.8 L 329.5,265.5 L 330.5,268.3 L 331.6,271 L 332.6,273.7 L 333.6,276.3 L 334.7,279 L 335.7,281.6 L 336.7,284.2 L 337.8,286.8 L 338.8,289.4 L 339.8,291.9 L 340.9,294.4 L 341.9,296.9 L 342.9,299.3 L 344,301.7 L 345,304.1 L 346,306.4 L 347.1,308.8 L 348.1,311 L 349.1,313.3 L 350.2,315.5 L 351.2,317.7 L 352.2,319.8 L 353.3,322 L 354.3,324 L 355.3,326.1 L 356.4,328.1 L 357.4,330.1 L 358.4,332 L 359.5,333.9 L 360.5,335.8 L 361.5,337.6 L 362.6,339.4 L 363.6,341.2 L 364.6,342.9 L 365.7,344.6 L 366.7,346.3 L 367.7,347.9 L 368.8,349.5 L 369.8,351.1 L 370.8,352.6 L 371.9,354.1 L 372.9,355.5 L 373.9,357 L 375,358.4 L 376,359.7 L 377,361.1 L 378.1,362.4 L 379.1,363.6 L 380.1,364.9 L 381.2,366.1 L 382.2,367.3 L 383.2,368.4 L 384.3,369.5 L 385.3,370.6 L 386.3,371.7 L 387.4,372.7 L 388.4,373.8 L 389.4,374.7 L 390.5,375.7 L 391.5,376.6 L 392.5,377.6 L 393.6,378.5 L 394.6,379.3 L 395.6,380.2 L 396.7,381 L 397.7,381.8 L 398.7,382.6 L 399.8,383.3 L 400.8,384.1 L 401.8,384.8 L 402.9,385.5 L 403.9,386.2 L 404.9,386.8 L 406,387.5 L 407,388.1 L 408,388.7 L 409.1,389.3 L 410.1,389.8 L 411.1,390.4 L 412.2,390.9 L 413.2,391.5 L 414.2,392 L 415.3,392.5 L 416.3,392.9 L 417.3,393.4 L 418.4,393.9 L 419.4,394.3 L 420.4,394.7 L 421.5,395.1 L 422.5,395.5 L 423.5,395.9 L 424.6,396.3 L 425.6,396.7 L 426.6,397 L 427.7,397.4 L 428.7,397.7 L 429.7,398.1 L 430.8,398.4 L 431.8,398.7 L 432.8,399 L 433.9,399.3 L 434.9,399.5 L 435.9,399.8 L 437,400.1 L 438,400.3 L 439,400.6 L 440.1,400.8 L 441.1,401.1 L 442.1,401.3 L 443.2,401.5 L 444.2,401.7 L 445.2,401.9 L 446.3,402.1 L 447.3,402.3 L 448.3,402.5 L 449.4,402.7 L 450.4,402.9 L 451.4,403 L 452.5,403.2 L 453.5,403.4 L 454.5,403.5 L 455.6,403.7 L 456.6,403.8 L 457.6,404 L 458.7,404.1 L 459.7,404.2 L 460.7,404.4 L 461.8,404.5 L 462.8,404.6 L 463.8,404.7 L 464.9,404.8 L 465.9,405 L 466.9,405.1 L 468,405.2 L 469,405.3 L 470,405.4 L 471.1,405.5 L 472.1,405.5 L 473.1,405.6 L 474.2,405.7 L 475.2,405.8 L 476.2,405.9 L 477.3,406 L 478.3,406 L 479.3,406.1 L 480.4,406.2 L 481.4,406.3 L 482.4,406.3 L 483.5,406.4 L 484.5,406.4 L 485.5,406.5 L 486.6,406.6 L 487.6,406.6 L 488.6,406.7 L 489.7,406.7 L 490.7,406.8 L 491.7,406.8 L 492.8,406.9 L 493.8,406.9 L 494.8,407 L 495.9,407 L 496.9,407.1 L 497.9,407.1 L 499,407.1 L 500,407.2 L 501,407.2 L 502.1,407.3 L 503.1,407.3 L 504.1,407.3 L 505.2,407.4 L 506.2,407.4 L 507.2,407.4 L 508.3,407.5 L 509.3,407.5 L 510.3,407.5 L 511.4,407.5 L 512.4,407.6 L 513.4,407.6 L 514.5,407.6 L 515.5,407.6 L 516.5,407.7 L 517.6,407.7 L 518.6,407.7 L 519.6,407.7 L 520.7,407.8 L 521.7,407.8 L 522.7,407.8 L 523.8,407.8 L 524.8,407.8 L 525.8,407.8 L 526.9,407.9 L 527.9,407.9 L 528.9,407.9 L 530,407.9 L 531,407.9 L 532,407.9 L 533.1,408 L 534.1,408 L 535.1,408 L 536.2,408 L 537.2,408 L 538.2,408 L 539.3,408 L 540.3,408 L 541.3,408.1 L 542.4,408.1 L 543.4,408.1 L 544.4,408.1 L 545.5,408.1 L 546.5,408.1 L 547.5,408.1 L 548.6,408.1 L 549.6,408.1 L 550.6,408.1 L 551.7,408.1 L 552.7,408.1 L 553.7,408.2 L 554.8,408.2 L 555.8,408.2 L 556.8,408.2 L 557.9,408.2 L 558.9,408.2 L 559.9,408.2 L 561,408.2 L 562,408.2 L 563,408.2 L 564.1,408.2 L 565.1,408.2 L 566.1,408.2 L 567.2,408.2 L 568.2,408.2 L 569.2,408.2 L 570.3,408.2 L 571.3,408.3 L 572.3,408.3 L 573.4,408.3 L 574.4,408.3"
       id="path4814"
       style="stroke:#ff0000;stroke-width:1.65961039000000010"
       sodipodi:nodetypes="cccccccccccccccccccccccccccccccccccccccccccccccccccccccccccccccccccccccccccccccccccccccccccccccccccccccccccccccccccccccccccccccccccccccccccccccccccccccccccccccccccccccccccccccccccccccccccccccccccccccccccccccccccccccccccccccccccccccccccccccccccccccccccccccccccccccccccccccccccccccccccccccccccccccccccccccccccccccccccccccccccccccccccccccccccccccccccccccccccccccccccccccccccccccccccccccccccccccccccccccccccccccccccccccccccccccccccccccccccccccccccccccccccccccccccccccccccccccccccccccccccccccccccccccccccc" />
  </g>
  <g
     style="fill:none;stroke-width:2;stroke-linecap:butt;stroke-linejoin:miter"
     id="g4816" />
  <g
     style="fill:none;stroke:#00ff00;stroke-width:1.65961039000000010;stroke-linecap:butt;stroke-linejoin:miter"
     id="g4824"
     transform="matrix(1.4522712,0,0,1,-153.69278,0)">
    <path
       d="M 58.8,52.2 L 59.8,52.2 L 60.9,52.2 L 61.9,52.2 L 62.9,52.2 L 64,52.2 L 65,52.2 L 66,52.2 L 67.1,52.2 L 68.1,52.2 L 69.1,52.2 L 70.2,52.2 L 71.2,52.2 L 72.2,52.2 L 73.3,52.2 L 74.3,52.2 L 75.3,52.2 L 76.4,52.2 L 77.4,52.2 L 78.4,52.2 L 79.5,52.2 L 80.5,52.2 L 81.5,52.2 L 82.6,52.2 L 83.6,52.2 L 84.6,52.2 L 85.7,52.2 L 86.7,52.2 L 87.7,52.2 L 88.8,52.2 L 89.8,52.2 L 90.8,52.2 L 91.9,52.2 L 92.9,52.2 L 93.9,52.2 L 95,52.2 L 96,52.2 L 97,52.2 L 98.1,52.2 L 99.1,52.2 L 100.1,52.2 L 101.2,52.2 L 102.2,52.2 L 103.2,52.2 L 104.3,52.2 L 105.3,52.2 L 106.3,52.2 L 107.4,52.2 L 108.4,52.2 L 109.4,52.2 L 110.5,52.2 L 111.5,52.2 L 112.5,52.2 L 113.6,52.2 L 114.6,52.2 L 115.6,52.2 L 116.7,52.2 L 117.7,52.2 L 118.7,52.2 L 119.8,52.2 L 120.8,52.2 L 121.8,52.2 L 122.9,52.2 L 123.9,52.2 L 124.9,52.2 L 126,52.2 L 127,52.2 L 128,52.2 L 129.1,52.2 L 130.1,52.2 L 131.1,52.2 L 132.2,52.2 L 133.2,52.2 L 134.2,52.2 L 135.3,52.2 L 136.3,52.2 L 137.3,52.2 L 138.4,52.2 L 139.4,52.2 L 140.4,52.2 L 141.5,52.2 L 142.5,52.2 L 143.5,52.2 L 144.6,52.2 L 145.6,52.2 L 146.6,52.2 L 147.7,52.2 L 148.7,52.2 L 149.7,52.2 L 150.8,52.2 L 151.8,52.2 L 152.8,52.2 L 153.9,52.2 L 154.9,52.2 L 155.9,52.2 L 157,52.2 L 158,52.2 L 159,52.2 L 160.1,52.2 L 161.1,52.2 L 162.1,52.2 L 163.2,52.2 L 164.2,52.2 L 165.2,52.2 L 166.3,52.2 L 167.3,52.2 L 168.3,52.2 L 169.4,52.2 L 170.4,52.2 L 171.4,52.2 L 172.5,52.2 L 173.5,52.2 L 174.5,52.2 L 175.6,52.2 L 176.6,52.2 L 177.6,52.2 L 178.7,52.2 L 179.7,52.2 L 180.7,52.2 L 181.8,52.2 L 182.8,52.2 L 183.8,52.2 L 184.9,52.2 L 185.9,52.2 L 186.9,52.2 L 188,52.2 L 189,52.2 L 190,52.2 L 191.1,52.2 L 192.1,52.2 L 193.1,52.2 L 194.2,52.2 L 195.2,52.2 L 196.2,52.2 L 197.3,52.2 L 198.3,52.2 L 199.3,52.2 L 200.4,52.2 L 201.4,52.2 L 202.4,52.2 L 203.5,52.2 L 204.5,52.2 L 205.5,52.2 L 206.6,52.2 L 207.6,52.2 L 208.6,52.2 L 209.7,52.2 L 210.7,52.2 L 211.7,52.2 L 212.8,52.2 L 213.8,52.2 L 214.8,52.2 L 215.9,52.2 L 216.9,52.2 L 217.9,52.2 L 219,52.2 L 220,52.2 L 221,52.2 L 222.1,52.2 L 223.1,52.2 L 224.1,52.2 L 225.2,52.2 L 226.2,52.2 L 227.2,52.2 L 228.3,52.2 L 229.3,52.2 L 230.3,52.2 L 231.4,52.2 L 232.4,52.2 L 233.4,52.2 L 234.5,52.2 L 235.5,52.2 L 236.5,52.2 L 237.6,52.2 L 238.6,52.2 L 239.6,52.2 L 240.7,52.2 L 241.7,52.2 L 242.7,52.2 L 243.8,52.2 L 244.8,52.2 L 245.8,52.2 L 246.9,52.2 L 247.9,52.2 L 248.9,52.2 L 250,52.2 L 251,52.2 L 252,52.2 L 253.1,52.2 L 254.1,52.2 L 255.1,52.2 L 256.2,52.2 L 257.2,52.2 L 258.2,52.2 L 259.3,52.2 L 260.3,52.2 L 261.3,52.2 L 262.4,52.2 L 263.4,52.2 L 264.4,52.2 L 265.5,52.2 L 266.5,52.2 L 267.5,52.2 L 268.6,52.2 L 269.6,52.2 L 270.6,52.2 L 271.7,52.2 L 272.7,52.2 L 273.7,52.2 L 274.8,52.2 L 275.8,52.2 L 276.8,52.2 L 277.9,52.2 L 278.9,52.2 L 279.9,52.2 L 281,52.2 L 282,52.2 L 283,52.2 L 284.1,52.2 L 285.1,52.2 L 286.1,52.2 L 287.2,52.3 L 288.2,52.3 L 289.2,52.3 L 290.3,52.3 L 291.3,52.4 L 292.3,52.4 L 293.4,52.5 L 294.4,52.6 L 295.4,52.7 L 296.5,52.9 L 297.5,53.2 L 298.5,53.5 L 299.6,54 L 300.6,54.7 L 301.6,55.6 L 302.7,56.9 L 303.7,58.6 L 304.7,60.9 L 305.8,64.1 L 306.8,68.4 L 307.8,74.1 L 308.9,81.7 L 309.9,91.6 L 310.9,104.3 L 312,120.3 L 313,139.7 L 314,162.5 L 315.1,188.3 L 316.1,216.1 L 317.1,244.5 L 318.1,272.3 L 319.2,298.1 L 320.2,320.9 L 321.2,340.3 L 322.3,356.3 L 323.3,369 L 324.3,378.9 L 325.4,386.5 L 326.4,392.2 L 327.4,396.5 L 328.5,399.7 L 329.5,402 L 330.5,403.7 L 331.6,405 L 332.6,405.9 L 333.6,406.6 L 334.7,407.1 L 335.7,407.4 L 336.7,407.7 L 337.8,407.9 L 338.8,408 L 339.8,408.1 L 340.9,408.2 L 341.9,408.2 L 342.9,408.3 L 344,408.3 L 345,408.3 L 346,408.3 L 347.1,408.4 L 348.1,408.4 L 349.1,408.4 L 350.2,408.4 L 351.2,408.4 L 352.2,408.4 L 353.3,408.4 L 354.3,408.4 L 355.3,408.4 L 356.4,408.4 L 357.4,408.4 L 358.4,408.4 L 359.5,408.4 L 360.5,408.4 L 361.5,408.4 L 362.6,408.4 L 363.6,408.4 L 364.6,408.4 L 365.7,408.4 L 366.7,408.4 L 367.7,408.4 L 368.8,408.4 L 369.8,408.4 L 370.8,408.4 L 371.9,408.4 L 372.9,408.4 L 373.9,408.4 L 375,408.4 L 376,408.4 L 377,408.4 L 378.1,408.4 L 379.1,408.4 L 380.1,408.4 L 381.2,408.4 L 382.2,408.4 L 383.2,408.4 L 384.3,408.4 L 385.3,408.4 L 386.3,408.4 L 387.4,408.4 L 388.4,408.4 L 389.4,408.4 L 390.5,408.4 L 391.5,408.4 L 392.5,408.4 L 393.6,408.4 L 394.6,408.4 L 395.6,408.4 L 396.7,408.4 L 397.7,408.4 L 398.7,408.4 L 399.8,408.4 L 400.8,408.4 L 401.8,408.4 L 402.9,408.4 L 403.9,408.4 L 404.9,408.4 L 406,408.4 L 407,408.4 L 408,408.4 L 409.1,408.4 L 410.1,408.4 L 411.1,408.4 L 412.2,408.4 L 413.2,408.4 L 414.2,408.4 L 415.3,408.4 L 416.3,408.4 L 417.3,408.4 L 418.4,408.4 L 419.4,408.4 L 420.4,408.4 L 421.5,408.4 L 422.5,408.4 L 423.5,408.4 L 424.6,408.4 L 425.6,408.4 L 426.6,408.4 L 427.7,408.4 L 428.7,408.4 L 429.7,408.4 L 430.8,408.4 L 431.8,408.4 L 432.8,408.4 L 433.9,408.4 L 434.9,408.4 L 435.9,408.4 L 437,408.4 L 438,408.4 L 439,408.4 L 440.1,408.4 L 441.1,408.4 L 442.1,408.4 L 443.2,408.4 L 444.2,408.4 L 445.2,408.4 L 446.3,408.4 L 447.3,408.4 L 448.3,408.4 L 449.4,408.4 L 450.4,408.4 L 451.4,408.4 L 452.5,408.4 L 453.5,408.4 L 454.5,408.4 L 455.6,408.4 L 456.6,408.4 L 457.6,408.4 L 458.7,408.4 L 459.7,408.4 L 460.7,408.4 L 461.8,408.4 L 462.8,408.4 L 463.8,408.4 L 464.9,408.4 L 465.9,408.4 L 466.9,408.4 L 468,408.4 L 469,408.4 L 470,408.4 L 471.1,408.4 L 472.1,408.4 L 473.1,408.4 L 474.2,408.4 L 475.2,408.4 L 476.2,408.4 L 477.3,408.4 L 478.3,408.4 L 479.3,408.4 L 480.4,408.4 L 481.4,408.4 L 482.4,408.4 L 483.5,408.4 L 484.5,408.4 L 485.5,408.4 L 486.6,408.4 L 487.6,408.4 L 488.6,408.4 L 489.7,408.4 L 490.7,408.4 L 491.7,408.4 L 492.8,408.4 L 493.8,408.4 L 494.8,408.4 L 495.9,408.4 L 496.9,408.4 L 497.9,408.4 L 499,408.4 L 500,408.4 L 501,408.4 L 502.1,408.4 L 503.1,408.4 L 504.1,408.4 L 505.2,408.4 L 506.2,408.4 L 507.2,408.4 L 508.3,408.4 L 509.3,408.4 L 510.3,408.4 L 511.4,408.4 L 512.4,408.4 L 513.4,408.4 L 514.5,408.4 L 515.5,408.4 L 516.5,408.4 L 517.6,408.4 L 518.6,408.4 L 519.6,408.4 L 520.7,408.4 L 521.7,408.4 L 522.7,408.4 L 523.8,408.4 L 524.8,408.4 L 525.8,408.4 L 526.9,408.4 L 527.9,408.4 L 528.9,408.4 L 530,408.4 L 531,408.4 L 532,408.4 L 533.1,408.4 L 534.1,408.4 L 535.1,408.4 L 536.2,408.4 L 537.2,408.4 L 538.2,408.4 L 539.3,408.4 L 540.3,408.4 L 541.3,408.4 L 542.4,408.4 L 543.4,408.4 L 544.4,408.4 L 545.5,408.4 L 546.5,408.4 L 547.5,408.4 L 548.6,408.4 L 549.6,408.4 L 550.6,408.4 L 551.7,408.4 L 552.7,408.4 L 553.7,408.4 L 554.8,408.4 L 555.8,408.4 L 556.8,408.4 L 557.9,408.4 L 558.9,408.4 L 559.9,408.4 L 561,408.4 L 562,408.4 L 563,408.4 L 564.1,408.4 L 565.1,408.4 L 566.1,408.4 L 567.2,408.4 L 568.2,408.4 L 569.2,408.4 L 570.3,408.4 L 571.3,408.4 L 572.3,408.4 L 573.4,408.4 L 574.4,408.4"
       id="path4826"
       style="stroke:#00ff00;stroke-width:1.65961039000000010"
       sodipodi:nodetypes="cccccccccccccccccccccccccccccccccccccccccccccccccccccccccccccccccccccccccccccccccccccccccccccccccccccccccccccccccccccccccccccccccccccccccccccccccccccccccccccccccccccccccccccccccccccccccccccccccccccccccccccccccccccccccccccccccccccccccccccccccccccccccccccccccccccccccccccccccccccccccccccccccccccccccccccccccccccccccccccccccccccccccccccccccccccccccccccccccccccccccccccccccccccccccccccccccccccccccccccccccccccccccccccccccccccccccccccccccccccccccccccccccccccccccccccccccccccccccccccccccccccccccccccccccccc" />
  </g>
  <g
     style="fill:none;stroke-width:2;stroke-linecap:butt;stroke-linejoin:miter"
     id="g4828" />
  <g
     style="fill:none;stroke:#0000ff;stroke-width:1.65961039000000010;stroke-linecap:butt;stroke-linejoin:miter"
     id="g4836"
     transform="matrix(1.4522712,0,0,1,-153.69278,0)">
    <path
       d="M 58.8,52.2 L 59.8,52.2 L 60.9,52.2 L 61.9,52.2 L 62.9,52.2 L 64,52.2 L 65,52.2 L 66,52.2 L 67.1,52.2 L 68.1,52.2 L 69.1,52.2 L 70.2,52.2 L 71.2,52.2 L 72.2,52.2 L 73.3,52.2 L 74.3,52.2 L 75.3,52.2 L 76.4,52.2 L 77.4,52.2 L 78.4,52.2 L 79.5,52.2 L 80.5,52.2 L 81.5,52.2 L 82.6,52.2 L 83.6,52.2 L 84.6,52.2 L 85.7,52.2 L 86.7,52.2 L 87.7,52.2 L 88.8,52.2 L 89.8,52.2 L 90.8,52.2 L 91.9,52.2 L 92.9,52.2 L 93.9,52.2 L 95,52.2 L 96,52.2 L 97,52.2 L 98.1,52.2 L 99.1,52.2 L 100.1,52.2 L 101.2,52.2 L 102.2,52.2 L 103.2,52.2 L 104.3,52.2 L 105.3,52.2 L 106.3,52.2 L 107.4,52.2 L 108.4,52.2 L 109.4,52.2 L 110.5,52.2 L 111.5,52.2 L 112.5,52.2 L 113.6,52.2 L 114.6,52.2 L 115.6,52.2 L 116.7,52.2 L 117.7,52.2 L 118.7,52.2 L 119.8,52.2 L 120.8,52.2 L 121.8,52.2 L 122.9,52.2 L 123.9,52.2 L 124.9,52.2 L 126,52.2 L 127,52.2 L 128,52.2 L 129.1,52.2 L 130.1,52.2 L 131.1,52.2 L 132.2,52.2 L 133.2,52.2 L 134.2,52.2 L 135.3,52.2 L 136.3,52.2 L 137.3,52.2 L 138.4,52.2 L 139.4,52.2 L 140.4,52.2 L 141.5,52.2 L 142.5,52.2 L 143.5,52.2 L 144.6,52.2 L 145.6,52.2 L 146.6,52.2 L 147.7,52.2 L 148.7,52.2 L 149.7,52.2 L 150.8,52.2 L 151.8,52.2 L 152.8,52.2 L 153.9,52.2 L 154.9,52.2 L 155.9,52.2 L 157,52.2 L 158,52.2 L 159,52.2 L 160.1,52.2 L 161.1,52.2 L 162.1,52.2 L 163.2,52.2 L 164.2,52.2 L 165.2,52.2 L 166.3,52.2 L 167.3,52.3 L 168.3,52.3 L 169.4,52.3 L 170.4,52.3 L 171.4,52.3 L 172.5,52.3 L 173.5,52.3 L 174.5,52.3 L 175.6,52.3 L 176.6,52.3 L 177.6,52.3 L 178.7,52.3 L 179.7,52.3 L 180.7,52.3 L 181.8,52.3 L 182.8,52.3 L 183.8,52.3 L 184.9,52.3 L 185.9,52.3 L 186.9,52.3 L 188,52.3 L 189,52.3 L 190,52.4 L 191.1,52.4 L 192.1,52.4 L 193.1,52.4 L 194.2,52.4 L 195.2,52.4 L 196.2,52.4 L 197.3,52.4 L 198.3,52.4 L 199.3,52.5 L 200.4,52.5 L 201.4,52.5 L 202.4,52.5 L 203.5,52.5 L 204.5,52.6 L 205.5,52.6 L 206.6,52.6 L 207.6,52.6 L 208.6,52.7 L 209.7,52.7 L 210.7,52.7 L 211.7,52.7 L 212.8,52.8 L 213.8,52.8 L 214.8,52.9 L 215.9,52.9 L 216.9,52.9 L 217.9,53 L 219,53 L 220,53.1 L 221,53.2 L 222.1,53.2 L 223.1,53.3 L 224.1,53.4 L 225.2,53.4 L 226.2,53.5 L 227.2,53.6 L 228.3,53.7 L 229.3,53.8 L 230.3,53.9 L 231.4,54 L 232.4,54.1 L 233.4,54.2 L 234.5,54.4 L 235.5,54.5 L 236.5,54.7 L 237.6,54.8 L 238.6,55 L 239.6,55.2 L 240.7,55.4 L 241.7,55.6 L 242.7,55.8 L 243.8,56 L 244.8,56.3 L 245.8,56.6 L 246.9,56.9 L 247.9,57.2 L 248.9,57.5 L 250,57.8 L 251,58.2 L 252,58.6 L 253.1,59 L 254.1,59.4 L 255.1,59.9 L 256.2,60.4 L 257.2,60.9 L 258.2,61.5 L 259.3,62.1 L 260.3,62.7 L 261.3,63.4 L 262.4,64.1 L 263.4,64.9 L 264.4,65.7 L 265.5,66.5 L 266.5,67.4 L 267.5,68.4 L 268.6,69.4 L 269.6,70.5 L 270.6,71.6 L 271.7,72.8 L 272.7,74.1 L 273.7,75.5 L 274.8,76.9 L 275.8,78.4 L 276.8,80 L 277.9,81.7 L 278.9,83.5 L 279.9,85.4 L 281,87.3 L 282,89.4 L 283,91.6 L 284.1,93.9 L 285.1,96.3 L 286.1,98.9 L 287.2,101.6 L 288.2,104.3 L 289.2,107.3 L 290.3,110.3 L 291.3,113.5 L 292.3,116.8 L 293.4,120.3 L 294.4,123.9 L 295.4,127.6 L 296.5,131.5 L 297.5,135.5 L 298.5,139.7 L 299.6,144 L 300.6,148.4 L 301.6,153 L 302.7,157.7 L 303.7,162.5 L 304.7,167.5 L 305.8,172.5 L 306.8,177.7 L 307.8,182.9 L 308.9,188.3 L 309.9,193.7 L 310.9,199.2 L 312,204.8 L 313,210.4 L 314,216.1 L 315.1,221.7 L 316.1,227.4 L 317.1,233.2 L 318.1,238.9 L 319.2,244.5 L 320.2,250.2 L 321.2,255.8 L 322.3,261.4 L 323.3,266.9 L 324.3,272.3 L 325.4,277.7 L 326.4,282.9 L 327.4,288.1 L 328.5,293.1 L 329.5,298.1 L 330.5,302.9 L 331.6,307.6 L 332.6,312.2 L 333.6,316.6 L 334.7,320.9 L 335.7,325.1 L 336.7,329.1 L 337.8,333 L 338.8,336.7 L 339.8,340.3 L 340.9,343.8 L 341.9,347.1 L 342.9,350.3 L 344,353.3 L 345,356.3 L 346,359 L 347.1,361.7 L 348.1,364.3 L 349.1,366.7 L 350.2,369 L 351.2,371.2 L 352.2,373.3 L 353.3,375.2 L 354.3,377.1 L 355.3,378.9 L 356.4,380.6 L 357.4,382.2 L 358.4,383.7 L 359.5,385.1 L 360.5,386.5 L 361.5,387.8 L 362.6,389 L 363.6,390.1 L 364.6,391.2 L 365.7,392.2 L 366.7,393.2 L 367.7,394.1 L 368.8,394.9 L 369.8,395.7 L 370.8,396.5 L 371.9,397.2 L 372.9,397.9 L 373.9,398.5 L 375,399.1 L 376,399.7 L 377,400.2 L 378.1,400.7 L 379.1,401.2 L 380.1,401.6 L 381.2,402 L 382.2,402.4 L 383.2,402.8 L 384.3,403.1 L 385.3,403.4 L 386.3,403.7 L 387.4,404 L 388.4,404.3 L 389.4,404.6 L 390.5,404.8 L 391.5,405 L 392.5,405.2 L 393.6,405.4 L 394.6,405.6 L 395.6,405.8 L 396.7,405.9 L 397.7,406.1 L 398.7,406.2 L 399.8,406.4 L 400.8,406.5 L 401.8,406.6 L 402.9,406.7 L 403.9,406.8 L 404.9,406.9 L 406,407 L 407,407.1 L 408,407.2 L 409.1,407.2 L 410.1,407.3 L 411.1,407.4 L 412.2,407.4 L 413.2,407.5 L 414.2,407.6 L 415.3,407.6 L 416.3,407.7 L 417.3,407.7 L 418.4,407.7 L 419.4,407.8 L 420.4,407.8 L 421.5,407.9 L 422.5,407.9 L 423.5,407.9 L 424.6,407.9 L 425.6,408 L 426.6,408 L 427.7,408 L 428.7,408 L 429.7,408.1 L 430.8,408.1 L 431.8,408.1 L 432.8,408.1 L 433.9,408.1 L 434.9,408.2 L 435.9,408.2 L 437,408.2 L 438,408.2 L 439,408.2 L 440.1,408.2 L 441.1,408.2 L 442.1,408.2 L 443.2,408.2 L 444.2,408.3 L 445.2,408.3 L 446.3,408.3 L 447.3,408.3 L 448.3,408.3 L 449.4,408.3 L 450.4,408.3 L 451.4,408.3 L 452.5,408.3 L 453.5,408.3 L 454.5,408.3 L 455.6,408.3 L 456.6,408.3 L 457.6,408.3 L 458.7,408.3 L 459.7,408.3 L 460.7,408.3 L 461.8,408.3 L 462.8,408.3 L 463.8,408.3 L 464.9,408.3 L 465.9,408.3 L 466.9,408.4 L 468,408.4 L 469,408.4 L 470,408.4 L 471.1,408.4 L 472.1,408.4 L 473.1,408.4 L 474.2,408.4 L 475.2,408.4 L 476.2,408.4 L 477.3,408.4 L 478.3,408.4 L 479.3,408.4 L 480.4,408.4 L 481.4,408.4 L 482.4,408.4 L 483.5,408.4 L 484.5,408.4 L 485.5,408.4 L 486.6,408.4 L 487.6,408.4 L 488.6,408.4 L 489.7,408.4 L 490.7,408.4 L 491.7,408.4 L 492.8,408.4 L 493.8,408.4 L 494.8,408.4 L 495.9,408.4 L 496.9,408.4 L 497.9,408.4 L 499,408.4 L 500,408.4 L 501,408.4 L 502.1,408.4 L 503.1,408.4 L 504.1,408.4 L 505.2,408.4 L 506.2,408.4 L 507.2,408.4 L 508.3,408.4 L 509.3,408.4 L 510.3,408.4 L 511.4,408.4 L 512.4,408.4 L 513.4,408.4 L 514.5,408.4 L 515.5,408.4 L 516.5,408.4 L 517.6,408.4 L 518.6,408.4 L 519.6,408.4 L 520.7,408.4 L 521.7,408.4 L 522.7,408.4 L 523.8,408.4 L 524.8,408.4 L 525.8,408.4 L 526.9,408.4 L 527.9,408.4 L 528.9,408.4 L 530,408.4 L 531,408.4 L 532,408.4 L 533.1,408.4 L 534.1,408.4 L 535.1,408.4 L 536.2,408.4 L 537.2,408.4 L 538.2,408.4 L 539.3,408.4 L 540.3,408.4 L 541.3,408.4 L 542.4,408.4 L 543.4,408.4 L 544.4,408.4 L 545.5,408.4 L 546.5,408.4 L 547.5,408.4 L 548.6,408.4 L 549.6,408.4 L 550.6,408.4 L 551.7,408.4 L 552.7,408.4 L 553.7,408.4 L 554.8,408.4 L 555.8,408.4 L 556.8,408.4 L 557.9,408.4 L 558.9,408.4 L 559.9,408.4 L 561,408.4 L 562,408.4 L 563,408.4 L 564.1,408.4 L 565.1,408.4 L 566.1,408.4 L 567.2,408.4 L 568.2,408.4 L 569.2,408.4 L 570.3,408.4 L 571.3,408.4 L 572.3,408.4 L 573.4,408.4 L 574.4,408.4"
       id="path4838"
       style="stroke:#0000ff;stroke-width:1.65961039000000010"
       sodipodi:nodetypes="cccccccccccccccccccccccccccccccccccccccccccccccccccccccccccccccccccccccccccccccccccccccccccccccccccccccccccccccccccccccccccccccccccccccccccccccccccccccccccccccccccccccccccccccccccccccccccccccccccccccccccccccccccccccccccccccccccccccccccccccccccccccccccccccccccccccccccccccccccccccccccccccccccccccccccccccccccccccccccccccccccccccccccccccccccccccccccccccccccccccccccccccccccccccccccccccccccccccccccccccccccccccccccccccccccccccccccccccccccccccccccccccccccccccccccccccccccccccccccccccccccccccccccccccccccc" />
  </g>
  <g
     style="fill:none;stroke-width:1;stroke-linecap:butt;stroke-linejoin:miter"
     id="g4840" />
  <g
     style="fill:none;stroke:#000000;stroke-width:0.8298052;stroke-linecap:butt;stroke-linejoin:miter"
     id="g4842"
     transform="matrix(1.4522712,0,0,1,-153.69278,0)">
    <path
       d="M 58.8,16.6 L 58.8,444 L 574.4,444 L 574.4,16.6 L 58.8,16.6 z"
       id="path4844"
       style="stroke:#000000;stroke-width:0.8298052" />
  </g>
  <text
     xml:space="preserve"
     style="font-size:12px;font-style:normal;font-variant:normal;font-weight:normal;font-stretch:normal;line-height:125%;fill:#ff0000;fill-opacity:1;stroke:none;stroke-width:1px;stroke-linecap:butt;stroke-linejoin:miter;stroke-opacity:1;font-family:Sans;-inkscape-font-specification:Sans"
     x="387.4899"
     y="345.30505"
     id="text5600"
     sodipodi:linespacing="125%"><tspan
       sodipodi:role="line"
       id="tspan5602"
       x="387.4899"
       y="345.30505"
       style="font-size:18px;font-style:normal;font-variant:normal;font-weight:normal;font-stretch:normal;text-align:start;line-height:125%;writing-mode:lr-tb;text-anchor:start;font-family:Serif;-inkscape-font-specification:Serif;fill:#ff0000">k T = 1</tspan></text>
  <text
     xml:space="preserve"
     style="font-size:13.39534854999999958px;font-style:normal;font-variant:normal;font-weight:normal;font-stretch:normal;text-align:start;line-height:125%;writing-mode:lr-tb;text-anchor:start;fill:#ff0000;fill-opacity:1;stroke:none;stroke-width:1px;stroke-linecap:butt;stroke-linejoin:miter;stroke-opacity:1;font-family:Serif;-inkscape-font-specification:Serif"
     x="396.96017"
     y="349.78979"
     id="text5604"
     sodipodi:linespacing="125%"><tspan
       sodipodi:role="line"
       id="tspan5606"
       x="396.96017"
       y="349.78979">B</tspan></text>
  <text
     xml:space="preserve"
     style="font-size:12px;font-style:normal;font-variant:normal;font-weight:normal;font-stretch:normal;line-height:125%;fill:#00ff00;fill-opacity:1;stroke:none;stroke-width:1px;stroke-linecap:butt;stroke-linejoin:miter;stroke-opacity:1;font-family:Sans;-inkscape-font-specification:Sans"
     x="316.87799"
     y="78.039268"
     id="text5608"
     sodipodi:linespacing="125%"><tspan
       sodipodi:role="line"
       id="tspan5610"
       x="316.87799"
       y="78.039268"
       style="font-size:18px;font-style:normal;font-variant:normal;font-weight:normal;font-stretch:normal;text-align:start;line-height:125%;writing-mode:lr-tb;text-anchor:start;fill:#00ff00;font-family:Serif;-inkscape-font-specification:Serif">k T = 0.1</tspan></text>
  <text
     xml:space="preserve"
     style="font-size:13.39534854999999958px;font-style:normal;font-variant:normal;font-weight:normal;font-stretch:normal;text-align:start;line-height:125%;writing-mode:lr-tb;text-anchor:start;fill:#00ff00;fill-opacity:1;stroke:none;stroke-width:1px;stroke-linecap:butt;stroke-linejoin:miter;stroke-opacity:1;font-family:Serif;-inkscape-font-specification:Serif"
     x="326.34827"
     y="82.52401"
     id="text5612"
     sodipodi:linespacing="125%"><tspan
       sodipodi:role="line"
       id="tspan5614"
       x="326.34827"
       y="82.52401">B</tspan></text>
  <text
     xml:space="preserve"
     style="font-size:12px;font-style:normal;font-variant:normal;font-weight:normal;font-stretch:normal;line-height:125%;fill:#0000ff;fill-opacity:1;stroke:none;stroke-width:1px;stroke-linecap:butt;stroke-linejoin:miter;stroke-opacity:1;font-family:Sans;-inkscape-font-specification:Sans"
     x="323.05664"
     y="223.8558"
     id="text5616"
     sodipodi:linespacing="125%"><tspan
       sodipodi:role="line"
       id="tspan5618"
       x="323.05664"
       y="223.8558"
       style="font-size:18px;font-style:normal;font-variant:normal;font-weight:normal;font-stretch:normal;text-align:start;line-height:125%;writing-mode:lr-tb;text-anchor:start;fill:#0000ff;font-family:Serif;-inkscape-font-specification:Serif">k T = 0.5</tspan></text>
  <text
     xml:space="preserve"
     style="font-size:13.39534854999999958px;font-style:normal;font-variant:normal;font-weight:normal;font-stretch:normal;text-align:start;line-height:125%;writing-mode:lr-tb;text-anchor:start;fill:#0000ff;fill-opacity:1;stroke:none;stroke-width:1px;stroke-linecap:butt;stroke-linejoin:miter;stroke-opacity:1;font-family:Serif;-inkscape-font-specification:Serif"
     x="332.52692"
     y="228.34055"
     id="text5620"
     sodipodi:linespacing="125%"><tspan
       sodipodi:role="line"
       id="tspan5622"
       x="332.52692"
       y="228.34055">B</tspan></text>
</svg>
